<?xml version="1.0" standalone="no"?>
<!DOCTYPE svg PUBLIC "-//W3C//DTD SVG 20010904//EN"
 "http://www.w3.org/TR/2001/REC-SVG-20010904/DTD/svg10.dtd">
<svg version="1.0" xmlns="http://www.w3.org/2000/svg"
 width="256.000000pt" height="256.000000pt" viewBox="0 0 256.000000 256.000000"
 preserveAspectRatio="xMidYMid meet">
<metadata>
Created by potrace 1.11, written by Peter Selinger 2001-2013
</metadata>
<g transform="translate(0.000000,256.000000) scale(0.100000,-0.100000)"
fill="#000000" stroke="none">
<path d="M0 1280 l0 -1280 1280 0 1280 0 0 1280 0 1280 -1280 0 -1280 0 0
-1280z m1155 492 c105 -53 152 -175 125 -322 -14 -82 -52 -152 -218 -407 -73
-111 -132 -205 -132 -208 0 -3 74 -5 165 -5 l165 0 0 -60 0 -60 -255 0 -255 0
0 48 c0 45 11 65 179 327 98 154 186 302 195 328 20 59 21 166 2 212 -17 41
-42 55 -96 55 -74 0 -120 -70 -120 -182 l0 -48 -71 0 -72 0 5 83 c7 134 62
221 158 252 62 20 174 14 225 -13z m610 17 c64 -16 128 -77 157 -147 22 -56
23 -65 23 -392 0 -326 -1 -337 -23 -392 -27 -67 -92 -132 -148 -147 -109 -30
-231 1 -291 74 -62 75 -68 114 -68 465 0 351 6 390 66 463 62 75 171 104 284
76z m-1351 -5 c26 -4 70 -21 98 -38 69 -41 99 -99 106 -200 8 -127 -34 -216
-116 -247 -24 -9 -23 -10 24 -34 86 -43 132 -149 121 -280 -7 -95 -27 -145
-77 -196 -65 -68 -112 -79 -322 -79 l-168 0 0 540 0 540 144 0 c79 0 164 -3
190 -6z m2057 -31 c0 -21 -44 -264 -98 -540 l-98 -503 -67 0 c-49 0 -68 4 -68
13 0 11 172 880 185 935 l5 22 -145 0 -145 0 0 55 0 55 215 0 215 0 1 -37z"/>
<path d="M1606 1654 c-14 -15 -30 -43 -36 -63 -14 -50 -13 -624 1 -676 6 -22
23 -52 37 -67 34 -36 110 -40 143 -7 46 46 49 69 49 411 0 295 -2 327 -19 365
-23 50 -45 63 -104 63 -34 0 -50 -6 -71 -26z"/>
<path d="M240 1511 l0 -171 71 0 c128 0 169 39 176 165 5 81 -15 132 -59 153
-15 7 -63 15 -107 19 l-81 6 0 -172z"/>
<path d="M240 1020 l0 -200 78 0 c148 0 185 42 180 205 -3 86 -7 105 -26 133
-35 48 -70 62 -157 62 l-75 0 0 -200z"/>
</g>
</svg>
